<svg viewBox="0 0 80 80" xmlns="http://www.w3.org/2000/svg" xmlns:xlink="http://www.w3.org/1999/xlink" width="80.000000" height="80.000000" fill="none" customFrame="#000000">
	<path id="Star 2" d="M48.1314 18.5524L45.6347 20.8101L44.7549 17.561L40 0L38.446 5.73935L34.3653 20.8101L22.7846 10.3379L18.3744 6.34986L20.17 12.0183L23.8685 23.6938L24.885 26.9028L21.564 26.3533L9.48097 24.354L3.61471 23.3834L8.18985 27.1812L17.6135 35.0037L20.2036 37.1537L17.1127 38.4869L5.86691 43.3376L0.407143 45.6926L6.30923 46.414L18.4661 47.8999L21.8074 48.3083L19.9279 51.1009L13.0899 61.2615L9.77002 66.1944L15.1252 63.6104L26.1555 58.2879L29.1872 56.8251L29.1159 60.1905L28.8566 72.435L28.7307 78.3797L31.8387 73.3107L38.2405 62.8697L40 60L41.7595 62.8697L48.1613 73.3107L51.2693 78.3797L51.1434 72.435L50.8841 60.1905L50.8128 56.8251L53.8445 58.2879L64.8748 63.6104L70.23 66.1944L66.9101 61.2615L60.0721 51.1009L58.1926 48.3083L61.5339 47.8999L73.6908 46.414L79.5929 45.6926L74.1331 43.3376L62.8873 38.4869L59.7964 37.1537L62.3865 35.0037L71.8101 27.1812L76.3853 23.3834L70.519 24.354L58.436 26.3533L55.115 26.9028L56.1315 23.6938L59.83 12.0183L61.6256 6.34986L57.2154 10.3379L48.1314 18.5524ZM55.4198 16.0064L47.6468 23.0353L44.0177 26.317L40 11.4787L35.9823 26.317L24.5802 16.0063L29.2225 30.6613L14.0561 28.1518L25.8845 37.9705L11.769 44.059L27.0281 45.9241L18.445 58.6775L32.2901 51.9968L31.9646 67.366L40 54.2607L48.0354 67.366L47.7099 51.9968L61.555 58.6775L52.972 45.9241L68.231 44.059L54.1155 37.9705L65.9439 28.1518L50.7775 30.6613L55.4198 16.0064Z" fill="rgb(238,219,109)" fill-rule="evenodd" />
</svg>
